<?xml version="1.0" encoding="utf-8"?>
<!-- Generator: Adobe Illustrator 16.0.0, SVG Export Plug-In . SVG Version: 6.00 Build 0)  -->
<!DOCTYPE svg PUBLIC "-//W3C//DTD SVG 1.1//EN" "http://www.w3.org/Graphics/SVG/1.1/DTD/svg11.dtd">
<svg version="1.1" id="Layer_1" xmlns="http://www.w3.org/2000/svg" xmlns:xlink="http://www.w3.org/1999/xlink" x="0px" y="0px"
	 width="38.121px" height="39.256px" viewBox="0 0 38.121 39.256" enable-background="new 0 0 38.121 39.256" xml:space="preserve">
<g>
	<g>
		<g>
			<path fill="#A2885B" d="M14.513,36.66c-0.029,0.161-0.187,0.315-0.349,0.342l-13.917,2.25c-0.163,0.026-0.271-0.085-0.242-0.246
				L7.086,0.248c0.029-0.162,0.187-0.271,0.349-0.244l13.061,2.245c0.162,0.028,0.271,0.183,0.24,0.345L14.513,36.66z"/>
		</g>
		<g>
			<path fill="#A2885B" d="M35.852,25.831c-0.029,0.161-0.188,0.314-0.35,0.342l-13.918,2.251c-0.163,0.026-0.271-0.085-0.242-0.246
				l3.125-17.1c0.029-0.162,0.188-0.271,0.35-0.244l13.06,2.245c0.162,0.028,0.271,0.183,0.241,0.345L35.852,25.831z"/>
		</g>
	</g>
</g>
</svg>
