<?xml version="1.0" encoding="utf-8"?>
<!-- Generator: Adobe Illustrator 16.0.0, SVG Export Plug-In . SVG Version: 6.00 Build 0)  -->
<!DOCTYPE svg PUBLIC "-//W3C//DTD SVG 1.1//EN" "http://www.w3.org/Graphics/SVG/1.1/DTD/svg11.dtd">
<svg version="1.1" id="Layer_1" xmlns="http://www.w3.org/2000/svg" xmlns:xlink="http://www.w3.org/1999/xlink" x="0px" y="0px"
	 width="414.051px" height="264.967px" viewBox="0 0 414.051 264.967" enable-background="new 0 0 414.051 264.967"
	 xml:space="preserve">
<g>
	<g>
		<g>
			<g>
				<path fill="#FFFFFF" d="M202.431,130.713c-0.087,0.475-0.548,0.926-1.024,1.003l-40.824,6.603
					c-0.476,0.077-0.795-0.249-0.708-0.723l20.772-113.689c0.087-0.475,0.547-0.796,1.022-0.714l38.311,6.585
					c0.476,0.082,0.794,0.538,0.707,1.012L202.431,130.713z"/>
			</g>
			<g>
				<path fill="#FFFFFF" d="M265.02,98.948c-0.087,0.475-0.548,0.926-1.024,1.003l-40.823,6.603
					c-0.477,0.077-0.796-0.249-0.709-0.723l9.165-50.158c0.087-0.475,0.547-0.796,1.022-0.715l38.312,6.585
					c0.476,0.082,0.794,0.537,0.707,1.012L265.02,98.948z"/>
			</g>
		</g>
		<g>
			<path fill="#FFFFFF" d="M31.208,214.847c2.27-16.185,4.539-32.301,6.809-48.352c8.888,0.127,17.775,0.244,26.662,0.353
				c3.956,0.048,6.926,0.248,8.913,0.604c1.985,0.355,3.686,0.928,5.096,1.717c2.293,1.309,3.919,3.202,4.88,5.685
				c0.96,2.483,1.201,5.377,0.723,8.689c-0.809,5.589-3.073,9.816-6.795,12.697c-3.721,2.88-8.786,4.347-15.196,4.381
				c-3.637,0.019-7.273,0.038-10.91,0.059c-0.658,4.632-1.316,9.268-1.975,13.909C43.346,214.669,37.276,214.755,31.208,214.847z
				 M52.955,189.66c0.978,0.001,1.955,0.002,2.933,0.002c3.522,0.001,6.009-0.449,7.456-1.353c1.447-0.902,2.329-2.444,2.642-4.628
				c0.307-2.139-0.146-3.666-1.355-4.589c-1.21-0.921-3.554-1.395-7.031-1.419c-0.978-0.007-1.955-0.014-2.933-0.021
				C54.096,181.652,53.525,185.654,52.955,189.66z"/>
			<path fill="#FFFFFF" d="M92.331,167.149c6.069,0.059,12.139,0.113,18.208,0.163c-0.778,5.318-1.556,10.642-2.334,15.969
				c4.104,0.011,8.206,0.021,12.309,0.031c0.778-5.307,1.557-10.607,2.334-15.906c6.092,0.044,12.184,0.083,18.276,0.117
				c-2.271,15.384-4.54,30.794-6.81,46.231c-6.093,0.038-12.185,0.08-18.276,0.128c0.85-5.813,1.699-11.621,2.55-17.425
				c-4.104,0.008-8.206,0.017-12.309,0.025c-0.85,5.828-1.7,11.662-2.55,17.501c-6.069,0.054-12.139,0.111-18.208,0.175
				C87.792,198.442,90.062,182.774,92.331,167.149z"/>
			<path fill="#FFFFFF" d="M142.43,213.708c2.27-15.405,4.539-30.785,6.81-46.143c13.798,0.068,27.596,0.111,41.395,0.131
				c-0.543,3.655-1.087,7.312-1.63,10.968c-7.888-0.006-15.775-0.017-23.663-0.031c-0.313,2.113-0.626,4.227-0.939,6.34
				c7.513,0.007,15.025,0.012,22.538,0.015c-0.53,3.571-1.061,7.143-1.591,10.715c-7.513,0.003-15.025,0.008-22.538,0.014
				c-0.337,2.277-0.675,4.554-1.012,6.831c8.002-0.017,16.004-0.027,24.005-0.035c-0.546,3.68-1.093,7.36-1.639,11.041
				C170.253,213.579,156.341,213.631,142.43,213.708z"/>
			<path fill="#FFFFFF" d="M191.257,213.541c2.27-15.285,4.54-30.562,6.81-45.837c9.127,0.007,18.254,0.003,27.38-0.011
				c1.551,11.141,3.102,22.284,4.652,33.433c1.654-11.146,3.31-22.296,4.964-33.452c5.194-0.013,10.388-0.028,15.583-0.047
				c-2.27,15.336-4.54,30.655-6.81,45.961c-8.991-0.028-17.981-0.046-26.972-0.054c-1.609-11.741-3.218-23.48-4.826-35.218
				c-1.744,11.738-3.489,23.476-5.233,35.214C201.623,213.53,196.439,213.534,191.257,213.541z"/>
			<path fill="#FFFFFF" d="M283.521,166.252c8.366-0.058,14.532,2.009,18.504,6.236c3.969,4.226,5.387,10.255,4.249,18.049
				c-1.127,7.729-4.325,13.741-9.594,18.018c-5.269,4.278-12.038,6.37-20.313,6.318c-8.297-0.052-14.454-2.219-18.472-6.498
				c-4.019-4.279-5.463-10.218-4.335-17.837c1.131-7.641,4.315-13.576,9.556-17.823
				C268.354,168.469,275.156,166.311,283.521,166.252z M287.352,190.538c0.633-4.309,0.483-7.557-0.445-9.74
				c-0.93-2.184-2.61-3.27-5.042-3.261c-2.478,0.009-4.504,1.112-6.076,3.307c-1.573,2.194-2.675,5.425-3.304,9.694
				c-0.636,4.312-0.49,7.566,0.435,9.769c0.927,2.202,2.629,3.307,5.106,3.314c2.432,0.009,4.435-1.08,6.008-3.271
				S286.713,194.889,287.352,190.538z"/>
			<path fill="#FFFFFF" d="M309.132,213.974c2.27-15.549,4.539-31.138,6.809-46.771c9.081-0.083,18.163-0.178,27.244-0.282
				c0.806,9.096,1.61,18.204,2.416,27.322c3.377-9.11,6.753-18.268,10.13-27.475c9.036-0.114,18.071-0.238,27.107-0.373
				c-2.27,16.184-4.539,32.3-6.81,48.351c-5.479-0.079-10.957-0.153-16.434-0.225c1.844-12.927,3.688-25.893,5.533-38.899
				c-5.117,13.034-10.235,25.953-15.353,38.776c-5.013-0.062-10.025-0.119-15.038-0.174c-1.508-12.807-3.015-25.587-4.522-38.342
				c-1.845,12.776-3.69,25.521-5.534,38.236C319.497,214.067,314.313,214.02,309.132,213.974z"/>
		</g>
		<g>
			<path fill="#FFFFFF" d="M137.627,227.865h3.07l1.777,10.621h0.038l1.776-10.621h2.994v13.943h-1.815v-12.554h-0.039
				l-1.969,12.554h-1.932l-2.163-12.554h-0.039v12.554h-1.699V227.865z"/>
			<path fill="#FFFFFF" d="M153.728,227.865h2.24l2.839,13.943h-1.931l-0.638-3.554h-3.013l-0.638,3.554h-1.931L153.728,227.865z
				 M153.515,236.632h2.453l-1.197-6.72h-0.038L153.515,236.632z"/>
			<path fill="#FFFFFF" d="M162.181,227.865h1.931v6.353h0.039l3.051-6.353h1.932l-3.244,6.546l3.476,7.397h-2.163l-3.051-6.973
				h-0.039v6.973h-1.931V227.865z"/>
			<path fill="#FFFFFF" d="M172.609,227.865h5.253v1.622h-3.322v4.364h3.129v1.622h-3.129v4.712h3.322v1.623h-5.253V227.865z"/>
			<path fill="#FFFFFF" d="M186.897,237.771h1.932v1.14c0,0.927,0.348,1.507,1.119,1.507c1.024,0,1.274-0.695,1.274-1.604
				c0-1.178-0.057-1.564-2.065-3.554c-1.236-1.235-2.26-2.356-2.26-4.248c0-2.279,1.062-3.265,3.168-3.265
				c1.042,0,1.796,0.349,2.259,0.773c0.328,0.309,0.561,0.792,0.561,1.776v1.313h-1.815v-1.102c0-0.791-0.328-1.255-1.082-1.255
				c-0.791,0-1.158,0.444-1.158,1.525c0,0.946,0.192,1.525,1.97,3.38c1.893,1.97,2.239,2.646,2.239,4.326
				c0,2.183-0.849,3.438-3.147,3.438c-1.776,0-2.993-0.753-2.993-2.491V237.771z"/>
			<path fill="#FFFFFF" d="M196.512,231.418c0-1.95,0.638-3.67,3.264-3.67c2.491,0,3.283,1.295,3.283,3.458v7.049
				c0,1.95-0.637,3.669-3.283,3.669c-2.472,0-3.264-1.294-3.264-3.457V231.418z M198.442,238.583c0,1.197,0.541,1.835,1.333,1.835
				c0.812,0,1.352-0.638,1.352-1.835v-7.319c0-1.372-0.463-2.009-1.352-2.009c-0.869,0-1.333,0.637-1.333,2.009V238.583z"/>
			<path fill="#FFFFFF" d="M206.657,227.865h3.07l1.776,10.621h0.039l1.776-10.621h2.993v13.943h-1.814v-12.554h-0.039l-1.97,12.554
				h-1.932l-2.162-12.554h-0.039v12.554h-1.699V227.865z"/>
			<path fill="#FFFFFF" d="M219.974,227.865h5.254v1.622h-3.322v4.364h3.129v1.622h-3.129v4.712h3.322v1.623h-5.254V227.865z"/>
			<path fill="#FFFFFF" d="M234.475,227.865h2.665l2.278,11.587h0.039v-11.587h1.815v13.943h-2.78l-2.279-11.896h-0.038v11.896h-1.7
				V227.865z"/>
			<path fill="#FFFFFF" d="M244.871,231.418c0-1.95,0.638-3.67,3.264-3.67c2.491,0,3.282,1.295,3.282,3.458v7.049
				c0,1.95-0.637,3.669-3.282,3.669c-2.473,0-3.264-1.294-3.264-3.457V231.418z M246.802,238.583c0,1.197,0.541,1.835,1.333,1.835
				c0.811,0,1.352-0.638,1.352-1.835v-7.319c0-1.372-0.463-2.009-1.352-2.009c-0.869,0-1.333,0.637-1.333,2.009V238.583z"/>
			<path fill="#FFFFFF" d="M254.995,227.865h1.931v13.943h-1.931V227.865z"/>
			<path fill="#FFFFFF" d="M260.378,237.771h1.932v1.14c0,0.927,0.347,1.507,1.12,1.507c1.023,0,1.274-0.695,1.274-1.604
				c0-1.178-0.058-1.564-2.066-3.554c-1.235-1.235-2.26-2.356-2.26-4.248c0-2.279,1.062-3.265,3.168-3.265
				c1.042,0,1.795,0.349,2.259,0.773c0.328,0.309,0.561,0.792,0.561,1.776v1.313h-1.815v-1.102c0-0.791-0.329-1.255-1.081-1.255
				c-0.792,0-1.159,0.444-1.159,1.525c0,0.946,0.193,1.525,1.97,3.38c1.893,1.97,2.24,2.646,2.24,4.326
				c0,2.183-0.851,3.438-3.147,3.438c-1.777,0-2.994-0.753-2.994-2.491V237.771z"/>
			<path fill="#FFFFFF" d="M270.02,227.865h5.253v1.622h-3.322v4.364h3.129v1.622h-3.129v4.712h3.322v1.623h-5.253V227.865z"/>
		</g>
	</g>
</g>
</svg>
