<?xml version="1.0" encoding="utf-8"?>
<!-- Generator: Adobe Illustrator 16.0.0, SVG Export Plug-In . SVG Version: 6.00 Build 0)  -->
<!DOCTYPE svg PUBLIC "-//W3C//DTD SVG 1.1//EN" "http://www.w3.org/Graphics/SVG/1.1/DTD/svg11.dtd">
<svg version="1.1" id="Layer_1" xmlns="http://www.w3.org/2000/svg" xmlns:xlink="http://www.w3.org/1999/xlink" x="0px" y="0px"
	 width="19.341px" height="19.917px" viewBox="0 0 19.341 19.917" enable-background="new 0 0 19.341 19.917" xml:space="preserve">
<g>
	<g>
		<path fill="#ADB3B8" d="M7.363,18.6c-0.015,0.082-0.095,0.16-0.177,0.174l-7.062,1.142c-0.082,0.014-0.137-0.043-0.122-0.125
			L3.595,0.126C3.61,0.044,3.69-0.012,3.772,0.003l6.627,1.139c0.082,0.014,0.137,0.093,0.122,0.175L7.363,18.6z"/>
	</g>
	<g>
		<path fill="#ADB3B8" d="M18.189,13.105c-0.015,0.082-0.095,0.16-0.177,0.174l-7.062,1.142c-0.082,0.014-0.137-0.043-0.122-0.125
			l1.586-8.676c0.015-0.082,0.095-0.137,0.177-0.123l6.626,1.139c0.082,0.014,0.137,0.093,0.122,0.175L18.189,13.105z"/>
	</g>
</g>
</svg>
